HIERARCHY
ROOT Hips
{
    OFFSET 0.000000 0.000000 0.000000
    CHANNELS 6 Xposition Yposition Zposition Zrotation Xrotation Yrotation
    JOINT Spine
    {
        OFFSET -0.000000 14.517291 0.000000
        CHANNELS 3 Zrotation Xrotation Yrotation
        JOINT Spine1
        {
            OFFSET -0.000000 37.558300 0.000000
            CHANNELS 3 Zrotation Xrotation Yrotation
            JOINT Neck
            {
                OFFSET -0.000000 37.404057 3.400369
                CHANNELS 3 Zrotation Xrotation Yrotation
                JOINT Head
                {
                    OFFSET -0.000000 24.785618 -3.540803
                    CHANNELS 3 Zrotation Xrotation Yrotation
                    End Site
                    {
                        OFFSET -0.000000 35.408028 0.000000
                    }
                }
            }
            JOINT LeftShoulder
            {
                OFFSET 6.992933 33.973492 -0.192664
                CHANNELS 3 Zrotation Xrotation Yrotation
                JOINT LeftArm
                {
                    OFFSET 21.527611 0.000000 0.000000
                    CHANNELS 3 Zrotation Xrotation Yrotation
                    JOINT LeftForeArm
                    {
                        OFFSET 56.353916 0.000000 0.000000
                        CHANNELS 3 Zrotation Xrotation Yrotation
                        JOINT LeftHand
                        {
                            OFFSET 47.774071 0.000000 0.000000
                            CHANNELS 3 Zrotation Xrotation Yrotation
                            End Site
                            {
                                OFFSET 26.556021 0.000000 0.000000
                            }
                        }
                    }
                }
            }
            JOINT RightShoulder
            {
                OFFSET -7.065357 33.973492 -0.192664
                CHANNELS 3 Zrotation Xrotation Yrotation
                JOINT RightArm
                {
                    OFFSET -21.527611 0.000000 0.000000
                    CHANNELS 3 Zrotation Xrotation Yrotation
                    JOINT RightForeArm
                    {
                        OFFSET -56.353916 0.000000 0.000000
                        CHANNELS 3 Zrotation Xrotation Yrotation
                        JOINT RightHand
                        {
                            OFFSET -47.774071 0.000000 0.000000
                            CHANNELS 3 Zrotation Xrotation Yrotation
                            End Site
                            {
                                OFFSET -26.556021 0.000000 0.000000
                            }
                        }
                    }
                }
            }
        }
    }
    JOINT LeftUpLeg
    {
        OFFSET 17.704014 0.000000 0.000000
        CHANNELS 3 Zrotation Xrotation Yrotation
        JOINT LeftLeg
        {
            OFFSET -0.000000 -81.181816 0.000000
            CHANNELS 3 Zrotation Xrotation Yrotation
            JOINT LeftFoot
            {
                OFFSET -0.000000 -62.821102 0.000000
                CHANNELS 3 Zrotation Xrotation Yrotation
                JOINT LeftToeBase
                {
                    OFFSET -0.000000 -11.507608 26.556021
                    CHANNELS 3 Zrotation Xrotation Yrotation
                    End Site
                    {
                        OFFSET -0.000000 0.000000 7.081605
                    }
                }
            }
        }
    }
    JOINT RightUpLeg
    {
        OFFSET -17.704014 0.000000 0.000000
        CHANNELS 3 Zrotation Xrotation Yrotation
        JOINT RightLeg
        {
            OFFSET -0.000000 -81.181816 0.000000
            CHANNELS 3 Zrotation Xrotation Yrotation
            JOINT RightFoot
            {
                OFFSET -0.000000 -62.821102 0.000000
                CHANNELS 3 Zrotation Xrotation Yrotation
                JOINT RightToeBase
                {
                    OFFSET -0.000000 -11.507608 26.556021
                    CHANNELS 3 Zrotation Xrotation Yrotation
                    End Site
                    {
                        OFFSET -0.000000 0.000000 7.081605
                    }
                }
            }
        }
    }
}
MOTION
Frames:    5
Frame Time:    0.008333
-9.513148    151.345413    -7.129641    0.669499    0.280852    23.492758    -3.692193    2.115310    6.705705    -0.306215    -0.604606    2.211184    -1.238467    4.685544    -16.065329    12.469249    -6.938301    -14.120055    5.093198    2.480387    -12.091799    -25.665550    15.851795    -69.865181    -11.012634    -6.804611    -119.675346    -8.651211    -24.209536    -13.723225    0.017756    11.636925    0.558502    38.041454    14.058687    46.997910    -38.580101    -32.573387    44.363510    11.550467    -14.457403    32.749371    -2.004564    -33.319157    -27.288931    -14.128801    29.667646    -21.685503    -4.941654    -2.720072    30.412479    0.000000    0.000000    0.000000    1.524199    7.604970    -19.255836    4.196453    31.035929    -5.017643    1.574378    -34.575806    -8.501236    0.000000    0.000000    0.000000    
-9.514310    151.339661    -7.134414    0.663139    0.268156    23.497517    -3.700579    2.111607    6.712793    -0.288453    -0.582937    2.213693    -1.219494    4.684274    -16.057142    12.460368    -6.958561    -14.113117    5.099328    2.490497    -12.090857    -25.698467    15.847511    -69.871445    -11.018762    -6.804109    -119.660522    -8.636653    -24.215555    -13.720101    0.027191    11.637678    0.549928    38.070904    14.031522    46.992485    -38.544353    -32.561241    44.410679    11.555099    -14.440899    32.734047    -2.002926    -33.316608    -27.291578    -14.120214    29.681526    -21.704998    -4.974744    -2.766082    30.453074    0.000000    0.000000    0.000000    1.538853    7.614856    -19.243925    4.209109    31.028797    -5.030810    1.546584    -34.585861    -8.530792    0.000000    0.000000    0.000000    
-9.520364    151.333282    -7.139869    0.648948    0.253924    23.499386    -3.698889    2.109046    6.718471    -0.270480    -0.564569    2.215768    -1.226819    4.694363    -16.058622    12.480674    -6.978974    -14.107795    5.091899    2.485206    -12.085044    -25.710205    15.861368    -69.867104    -11.005243    -6.838172    -119.656616    -8.641429    -24.223301    -13.711436    0.029423    11.641233    0.540585    38.104431    14.011981    47.004383    -38.523952    -32.546944    44.442638    11.538210    -14.428564    32.706699    -1.989586    -33.325497    -27.300812    -14.129603    29.715065    -21.704876    -4.976092    -2.802831    30.472012    0.000000    0.000000    0.000000    1.560730    7.621303    -19.226273    4.210720    31.029221    -5.015520    1.525132    -34.593208    -8.542844    0.000000    0.000000    0.000000    
-9.523020    151.328537    -7.139517    0.640893    0.234351    23.501030    -3.697108    2.113049    6.722930    -0.268910    -0.551124    2.217258    -1.204745    4.694239    -16.054995    12.475569    -6.983633    -14.106878    5.104781    2.487250    -12.079878    -25.739044    15.859478    -69.868546    -11.017424    -6.833976    -119.648346    -8.613212    -24.240057    -13.700497    0.049477    11.639229    0.534618    38.135670    13.997286    47.003998    -38.494659    -32.540108    44.478024    11.530824    -14.420843    32.717052    -1.976203    -33.318672    -27.305218    -14.136013    29.729500    -21.692944    -4.985602    -2.830966    30.474432    0.000000    0.000000    0.000000    1.582353    7.639722    -19.216969    4.212746    31.019852    -5.023349    1.515146    -34.598515    -8.563467    0.000000    0.000000    0.000000    
-9.527491    151.322281    -7.140438    0.626215    0.220778    23.498812    -3.692666    2.110967    6.729770    -0.262345    -0.540300    2.219640    -1.193251    4.700523    -16.055799    12.485144    -6.989665    -14.106465    5.107904    2.493090    -12.073334    -25.732918    15.867658    -69.880669    -11.002754    -6.881204    -119.645874    -8.609404    -24.259556    -13.689760    0.060918    11.654075    0.518536    38.140537    14.027218    47.038792    -38.543179    -32.570385    44.443356    11.547965    -14.444357    32.701462    -2.011684    -33.385719    -27.340179    -14.333668    29.958662    -21.226288    -4.722072    -2.839854    30.426067    0.000000    0.000000    0.000000    1.606982    7.652615    -19.212276    4.213804    31.002640    -5.028172    1.492135    -34.602692    -8.576103    0.000000    0.000000    0.000000    
